<?xml version="1.0" encoding="UTF-8"?><svg id="b" xmlns="http://www.w3.org/2000/svg" viewBox="0 0 17.82907 3.56896"><g id="c"><path d="M1.54197,3.44535h-.62019c-.24472.00408-.47963-.09615-.64603-.27564C.09627,3.00331-.00396,2.76841.00012,2.52369v-.62019c-.00408-.24472.09615-.47963.27564-.64603.16792-.17631.40262-.27332.64603-.26702h.62019c.50092-.00002.90832.40354.91305.90444v.08614h-.40484v-.08614c.00225-.13899-.05779-.2717-.16366-.36177-.08974-.10035-.21855-.15691-.35316-.15505h-.61157c-.13715-.00211-.26871.05428-.36177.15505-.09452.0931-.14734.22049-.14643.35316v.62019c-.0048.27588.21495.50341.49083.50821.00579.0001.01159.0001.01738,0h.62018c.12968-.00139.25355-.05403.34455-.14643.10121-.09635.15744-.23068.15505-.37039v-.08614h.40484v.09475c.0063.2434-.09071.4781-.26702.64603-.1613.18363-.39301.2901-.63741.29287Z" fill="#fff"/><path d="M4.22055,3.44513h-.59434c-.51851.00476-.94271-.41172-.94747-.93024-.00003-.00288-.00004-.00577-.00004-.00865v-.62019c.00942-.51369.43349-.92248.94719-.91306.00011,0,.00021,0,.00032,0h.62019c.50426,0,.91305.40879.91305.91305h0v.62019c.0063.2434-.09071.4781-.26702.64603-.16918.19278-.41548.30014-.67187.29286ZM3.6262,1.37784c-.13715-.00211-.26871.05428-.36177.15505-.09452.0931-.14734.22049-.14643.35316v.62019c-.0048.27588.21495.50341.49083.50821.00579.0001.01159.0001.01738,0h.62019c.13267.00091.26006-.05191.35316-.14643.10077-.09306.15715-.22462.15505-.36177v-.62019c-.01302-.2751-.2331-.49519-.50821-.50821h-.62018Z" fill="#fff"/><path d="M6.96842,3.44418h-.62018c-.24472.00408-.47963-.09615-.64603-.27564-.17949-.1664-.27972-.4013-.27564-.64603v-.62019c.00931-.50371.41789-.90847.92166-.91305h.62018c.2434-.0063.4781.09071.64603.26702.18176.16841.2822.40694.27564.65464v.08614h-.41346v-.08614c.00091-.13267-.05191-.26006-.14643-.35316-.09429-.09901-.22505-.15505-.36177-.15505h-.62018c-.13673,0-.26748.05604-.36177.15505-.09452.0931-.14734.22049-.14643.35316v.62019c-.00129.13527.05142.26548.14643.36177.09732.09345.22686.14588.36177.14643h.62018c.13492-.00055.26446-.05298.36177-.14643.09553-.09946.14812-.23249.14643-.37039v-.08614h.4393v.09475c.00408.24472-.09615.47963-.27564.64603-.17396.18324-.41959.28086-.67187.26702Z" fill="#fff"/><path d="M10.55242,2.8679l-.43854.43854c-.17016.17593-.40713.27116-.65171.2619-.24458.00926-.48155-.08598-.65171-.2619l-.43854-.43854c-.34959-.36276-.34689-.93788.00609-1.29734l.43854-.43854c.35946-.35298.93458-.35568,1.29734-.00609l.43854.43854c.17593.17016.27116.40713.2619.65171.00926.24458-.08598.48155-.2619.65172ZM8.65209,1.84465c-.09668.09668-.14951.22876-.14618.36545-.001.13267.05172.2601.14618.35327l.43854.43854c.09474.09656.22408.15137.35936.15227.13489-.00274.26356-.05726.35936-.15227l.43854-.43854c.09501-.09579.14953-.22446.15227-.35936-.0009-.13528-.05571-.26461-.15227-.35936l-.43854-.43854c-.09317-.09445-.2206-.14718-.35327-.14618-.13669-.00333-.26877.0495-.36545.14618l-.43854.43854Z" fill="#1bbf82"/><path d="M16.31508,2.85419h.43045c.00247.07916.03216.14225.08906.18925.0569.047.13606.0705.23749.0705.10885,0,.19049-.01979.24491-.05937.0569-.03958.08535-.09277.08535-.15956,0-.04453-.01484-.08411-.04453-.11874s-.08535-.06061-.16698-.07793l-.33026-.07793c-.16575-.03711-.28944-.09648-.37108-.17812-.07916-.08411-.11874-.19914-.11874-.3451,0-.11874.03092-.22141.09277-.30799.06432-.08658.1509-.15214.25975-.19667.10885-.047.23378-.0705.37479-.0705.13606,0,.25604.02474.35994.07422.1039.04948.1843.11874.2412.2078.05937.08906.0903.19296.09277.3117h-.43045c0-.07916-.02474-.14101-.07422-.18554-.04948-.047-.11874-.0705-.2078-.0705s-.15832.01979-.2078.05937c-.04948.03958-.07422.09277-.07422.15956,0,.10143.07916.17069.23749.2078l.33026.07793c.15338.03463.26841.09029.3451.16698.07916.07669.11874.18554.11874.32655,0,.12369-.03216.2313-.09648.32284-.06432.08906-.15461.15833-.27088.2078-.11627.047-.24986.0705-.40076.0705-.22759,0-.40942-.05566-.54548-.16698-.13359-.11132-.20038-.25728-.20038-.43787Z" fill="#fff"/><rect x="14.26113" y="1.49429" width=".40076" height="1.96475" fill="#fff"/><path d="M14.45602,1.10055c.07,0,.12868-.02368.17609-.07108.04968-.04968.0745-.1095.0745-.1795,0-.06994-.02481-.12862-.0745-.17603-.04741-.04741-.10608-.07114-.17609-.07114-.06994,0-.12982.02373-.17944.07114-.04741.04741-.07114.10608-.07114.17603,0,.07.02373.12982.07114.1795.04963.04741.1095.07108.17944.07108Z" fill="#fff"/><polygon points="16.07095 1.51849 15.75745 1.51849 15.75745 .91357 15.35482 .91357 15.35482 1.51849 15.04132 1.51849 15.04132 1.9192 15.35482 1.9192 15.35482 3.45904 15.75745 3.45904 15.75745 1.9192 16.07095 1.9192 16.07095 1.51849" fill="#fff"/><path d="M13.73734,3.44547h-.41346v-.34455c-.00055-.13492-.05298-.26446-.14643-.36177-.09487-.09818-.22525-.15406-.36178-.15505h-1.12839v.86137h-.40484V0h.40484v2.16203h1.12839c.13603.00544.26782-.04791.36177-.14643.0967-.09518.14971-.22613.14643-.36177v-.69771h.41346v.69771c.01034.27864-.11484.54504-.33593.71494.22109.16989.34627.4363.33593.71494v.36177Z" fill="#fff"/></g></svg>