<?xml version="1.0" encoding="UTF-8"?><svg id="a" xmlns="http://www.w3.org/2000/svg" viewBox="0 0 4.19733 4.19732"><g id="b"><path d="M3.78974,3.10887l-.68086.68086c-.26419.27314-.6321.421-1.01184.40663-.37973.01437-.74765-.13348-1.01184-.40663l-.68086-.68086c-.54277-.56321-.53858-1.45613.00946-2.01422l.68086-.68086c.55808-.54803,1.45101-.55222,2.01422-.00946l.68086.68086c.27314.26419.421.6321.40663,1.01184.01437.37973-.13348.74765-.40663,1.01184ZM1.13567,1.65427c-.11433.11433-.17681.27052-.17286.43216-.00119.15689.06117.30758.17286.41775l.51859.51859c.11204.11419.26498.179.42496.18007.15952-.00324.31167-.06771.42496-.18007l.51859-.51859c.11235-.11328.17683-.26544.18007-.42496-.00107-.15997-.06588-.31292-.18007-.42496l-.51859-.51859c-.11018-.1117-.26086-.17405-.41775-.17286-.16164-.00395-.31783.05853-.43216.17286l-.51859.51859Z" fill="#1bbf82"/></g></svg>