<svg width="52" height="52" viewBox="0 0 52 52" fill="none" xmlns="http://www.w3.org/2000/svg">
  <path fill-rule="evenodd" clip-rule="evenodd" d="M41.2841 4.96451C36.994 1.84204 31.7121 0 26 0C20.5243 0 15.4439 1.69273 11.2536 4.58346L26.4397 21.5144L41.2841 4.96451ZM6.35286 8.9703C2.39519 13.5323 0 19.4864 0 26C0 32.7261 2.55403 38.8556 6.74519 43.4718L22.022 26.4397L6.35286 8.9703ZM11.7454 47.7476C15.8388 50.4361 20.7368 52 26 52C31.5001 52 36.6014 50.2922 40.8023 47.3778L26.4397 31.365L11.7454 47.7476ZM45.6916 42.9783C49.6228 38.423 52 32.4891 52 26C52 19.724 49.7763 13.9674 46.0739 9.47498L30.8575 26.4397L45.6916 42.9783Z" fill="white"/>
</svg>
